<?xml version="1.0" standalone="no"?>
<!DOCTYPE svg PUBLIC "-//W3C//DTD SVG 20010904//EN"
 "http://www.w3.org/TR/2001/REC-SVG-20010904/DTD/svg10.dtd">
<svg version="1.0" xmlns="http://www.w3.org/2000/svg"
 width="400.000000pt" height="400.000000pt" viewBox="0 0 400.000000 400.000000"
 preserveAspectRatio="xMidYMid meet">
<metadata>
Created by potrace 1.11, written by Peter Selinger 2001-2013
</metadata>
<g transform="translate(0.000000,400.000000) scale(0.100000,-0.100000)"
fill="#000000" stroke="none">
<path d="M1770 3973 c-63 -6 -271 -44 -298 -55 -15 -5 -38 -12 -52 -14 -14 -3
-56 -16 -95 -30 -38 -14 -74 -27 -80 -28 -5 -2 -23 -9 -40 -16 -16 -7 -32 -14
-35 -14 -18 -5 -200 -102 -238 -127 -51 -34 -60 -36 -118 -22 -120 29 -236
-28 -284 -139 -18 -43 -21 -64 -17 -119 3 -38 2 -69 -1 -71 -4 -2 -35 -37 -69
-78 -123 -151 -244 -361 -318 -554 -27 -70 -83 -276 -91 -331 -2 -16 -6 -46
-10 -65 -14 -84 -20 -190 -18 -318 2 -151 7 -212 31 -332 4 -19 8 -42 9 -50
12 -91 84 -300 151 -440 61 -126 160 -288 218 -354 6 -6 28 -33 50 -61 68 -84
204 -217 295 -287 95 -73 131 -98 140 -98 6 0 10 -3 10 -7 0 -18 279 -173 310
-173 5 0 10 -4 10 -8 0 -5 6 -9 13 -10 6 0 60 -18 120 -40 59 -22 107 -38 107
-36 0 2 11 -1 26 -6 14 -6 37 -12 52 -15 31 -6 57 -11 92 -19 131 -29 462 -42
590 -22 19 3 58 8 85 12 28 3 53 8 56 10 4 2 24 6 45 10 51 8 214 56 294 86
80 31 244 110 248 121 2 4 9 7 15 7 22 0 212 131 297 205 45 39 209 203 235
235 84 104 159 212 205 297 18 32 35 63 38 68 4 6 7 12 7 15 1 3 18 40 38 83
20 43 37 84 37 91 0 7 3 16 8 20 4 4 7 11 7 14 1 4 11 36 23 72 12 36 30 103
41 150 39 165 45 229 46 450 0 213 -5 277 -35 410 -6 25 -13 56 -15 70 -8 44
-71 229 -98 289 -12 25 -22 48 -22 51 -2 12 -64 127 -116 215 -47 80 -164 232
-243 313 -90 94 -245 229 -321 282 -27 18 -52 37 -55 41 -3 3 -18 14 -35 23
-16 9 -57 32 -90 52 -76 44 -172 89 -255 120 -70 27 -81 31 -92 33 -4 1 -27 9
-50 17 -46 16 -188 49 -253 58 -23 4 -52 9 -65 12 -28 6 -387 12 -440 7z"/>
</g>
</svg>
